{
    "asset" : {
        "generator" : "Khronos glTF Blender I/O v1.7.33",
        "version" : "2.0"
    },
    "scene" : 0,
    "scenes" : [
        {
            "name" : "Scene",
            "nodes" : [
                3
            ]
        }
    ],
    "nodes" : [
        {
            "mesh" : 0,
            "name" : "group_14",
            "rotation" : [
                0,
                0.7071068286895752,
                0,
                0.7071067094802856
            ],
            "translation" : [
                13.700789451599121,
                6.692913055419922,
                -17.913389205932617
            ]
        },
        {
            "children" : [
                0
            ],
            "name" : "group_11",
            "translation" : [
                0,
                13.221359252929688,
                0
            ]
        },
        {
            "children" : [
                1
            ],
            "name" : "group_0",
            "rotation" : [
                0,
                -0.7071068286895752,
                0,
                0.7071067094802856
            ],
            "translation" : [
                0.0022312558721750975,
                0,
                -39.370079040527344
            ]
        },
        {
            "children" : [
                2
            ],
            "name" : "SketchUp",
            "scale" : [
                0.02539999969303608,
                0.02539999969303608,
                0.02539999969303608
            ]
        }
    ],
    "materials" : [
        {
            "doubleSided" : true,
            "name" : "Wood_Cherry_Original_0",
            "pbrMetallicRoughness" : {
                "baseColorFactor" : [
                    0.8000000715255737,
                    0.10324863344430923,
                    0.039342377334833145,
                    1
                ],
                "metallicFactor" : 0,
                "roughnessFactor" : 0.4000000059604645
            }
        },
        {
            "doubleSided" : true,
            "name" : "material.001",
            "pbrMetallicRoughness" : {
                "metallicFactor" : 0,
                "roughnessFactor" : 0.5
            }
        },
        {
            "doubleSided" : true,
            "name" : "Wood_Cherry_Original.001",
            "pbrMetallicRoughness" : {
                "baseColorFactor" : [
                    0.800000011920929,
                    0.800000011920929,
                    0.800000011920929,
                    1
                ],
                "metallicFactor" : 0,
                "roughnessFactor" : 0.5
            }
        }
    ],
    "meshes" : [
        {
            "name" : "ID194.001",
            "primitives" : [
                {
                    "attributes" : {
                        "POSITION" : 0,
                        "NORMAL" : 1,
                        "TEXCOORD_0" : 2,
                        "TEXCOORD_1" : 3,
                        "TEXCOORD_2" : 4,
                        "TEXCOORD_3" : 5,
                        "TEXCOORD_4" : 6,
                        "TEXCOORD_5" : 7,
                        "TEXCOORD_6" : 8,
                        "TEXCOORD_7" : 9,
                        "TEXCOORD_8" : 10,
                        "TEXCOORD_9" : 11,
                        "TEXCOORD_10" : 12,
                        "TEXCOORD_11" : 13,
                        "TEXCOORD_12" : 14,
                        "TEXCOORD_13" : 15,
                        "TEXCOORD_14" : 16,
                        "TEXCOORD_15" : 17,
                        "TEXCOORD_16" : 18
                    },
                    "indices" : 19,
                    "material" : 0
                },
                {
                    "attributes" : {
                        "POSITION" : 20,
                        "NORMAL" : 21,
                        "TEXCOORD_0" : 22,
                        "TEXCOORD_1" : 23,
                        "TEXCOORD_2" : 24,
                        "TEXCOORD_3" : 25,
                        "TEXCOORD_4" : 26,
                        "TEXCOORD_5" : 27,
                        "TEXCOORD_6" : 28,
                        "TEXCOORD_7" : 29,
                        "TEXCOORD_8" : 30,
                        "TEXCOORD_9" : 31,
                        "TEXCOORD_10" : 32,
                        "TEXCOORD_11" : 33,
                        "TEXCOORD_12" : 34,
                        "TEXCOORD_13" : 35,
                        "TEXCOORD_14" : 36,
                        "TEXCOORD_15" : 37,
                        "TEXCOORD_16" : 38
                    },
                    "indices" : 39,
                    "material" : 1
                },
                {
                    "attributes" : {
                        "POSITION" : 40,
                        "NORMAL" : 41,
                        "TEXCOORD_0" : 42,
                        "TEXCOORD_1" : 43,
                        "TEXCOORD_2" : 44,
                        "TEXCOORD_3" : 45,
                        "TEXCOORD_4" : 46,
                        "TEXCOORD_5" : 47,
                        "TEXCOORD_6" : 48,
                        "TEXCOORD_7" : 49,
                        "TEXCOORD_8" : 50,
                        "TEXCOORD_9" : 51,
                        "TEXCOORD_10" : 52,
                        "TEXCOORD_11" : 53,
                        "TEXCOORD_12" : 54,
                        "TEXCOORD_13" : 55,
                        "TEXCOORD_14" : 56,
                        "TEXCOORD_15" : 57,
                        "TEXCOORD_16" : 58
                    },
                    "indices" : 59,
                    "material" : 2
                }
            ]
        }
    ],
    "accessors" : [
        {
            "bufferView" : 0,
            "componentType" : 5126,
            "count" : 1280,
            "max" : [
                1.7716598510742188,
                8.858268737792969,
                25.669294357299805
            ],
            "min" : [
                -17.913394927978516,
                -6.692914009094238,
                -13.70079517364502
            ],
            "type" : "VEC3"
        },
        {
            "bufferView" : 1,
            "componentType" : 5126,
            "count" : 1280,
            "type" : "VEC3"
        },
        {
            "bufferView" : 2,
            "componentType" : 5126,
            "count" : 1280,
            "type" : "VEC2"
        },
        {
            "bufferView" : 3,
            "componentType" : 5126,
            "count" : 1280,
            "type" : "VEC2"
        },
        {
            "bufferView" : 4,
            "componentType" : 5126,
            "count" : 1280,
            "type" : "VEC2"
        },
        {
            "bufferView" : 5,
            "componentType" : 5126,
            "count" : 1280,
            "type" : "VEC2"
        },
        {
            "bufferView" : 6,
            "componentType" : 5126,
            "count" : 1280,
            "type" : "VEC2"
        },
        {
            "bufferView" : 7,
            "componentType" : 5126,
            "count" : 1280,
            "type" : "VEC2"
        },
        {
            "bufferView" : 8,
            "componentType" : 5126,
            "count" : 1280,
            "type" : "VEC2"
        },
        {
            "bufferView" : 9,
            "componentType" : 5126,
            "count" : 1280,
            "type" : "VEC2"
        },
        {
            "bufferView" : 10,
            "componentType" : 5126,
            "count" : 1280,
            "type" : "VEC2"
        },
        {
            "bufferView" : 11,
            "componentType" : 5126,
            "count" : 1280,
            "type" : "VEC2"
        },
        {
            "bufferView" : 12,
            "componentType" : 5126,
            "count" : 1280,
            "type" : "VEC2"
        },
        {
            "bufferView" : 13,
            "componentType" : 5126,
            "count" : 1280,
            "type" : "VEC2"
        },
        {
            "bufferView" : 14,
            "componentType" : 5126,
            "count" : 1280,
            "type" : "VEC2"
        },
        {
            "bufferView" : 15,
            "componentType" : 5126,
            "count" : 1280,
            "type" : "VEC2"
        },
        {
            "bufferView" : 16,
            "componentType" : 5126,
            "count" : 1280,
            "type" : "VEC2"
        },
        {
            "bufferView" : 17,
            "componentType" : 5126,
            "count" : 1280,
            "type" : "VEC2"
        },
        {
            "bufferView" : 18,
            "componentType" : 5126,
            "count" : 1280,
            "type" : "VEC2"
        },
        {
            "bufferView" : 19,
            "componentType" : 5123,
            "count" : 1590,
            "type" : "SCALAR"
        },
        {
            "bufferView" : 20,
            "componentType" : 5126,
            "count" : 720,
            "max" : [
                -0.5885869264602661,
                7.6771697998046875,
                24.924606323242188
            ],
            "min" : [
                -15.551188468933105,
                -19.914274215698242,
                -7.641152858734131
            ],
            "type" : "VEC3"
        },
        {
            "bufferView" : 21,
            "componentType" : 5126,
            "count" : 720,
            "type" : "VEC3"
        },
        {
            "bufferView" : 22,
            "componentType" : 5126,
            "count" : 720,
            "type" : "VEC2"
        },
        {
            "bufferView" : 23,
            "componentType" : 5126,
            "count" : 720,
            "type" : "VEC2"
        },
        {
            "bufferView" : 24,
            "componentType" : 5126,
            "count" : 720,
            "type" : "VEC2"
        },
        {
            "bufferView" : 25,
            "componentType" : 5126,
            "count" : 720,
            "type" : "VEC2"
        },
        {
            "bufferView" : 26,
            "componentType" : 5126,
            "count" : 720,
            "type" : "VEC2"
        },
        {
            "bufferView" : 27,
            "componentType" : 5126,
            "count" : 720,
            "type" : "VEC2"
        },
        {
            "bufferView" : 28,
            "componentType" : 5126,
            "count" : 720,
            "type" : "VEC2"
        },
        {
            "bufferView" : 29,
            "componentType" : 5126,
            "count" : 720,
            "type" : "VEC2"
        },
        {
            "bufferView" : 30,
            "componentType" : 5126,
            "count" : 720,
            "type" : "VEC2"
        },
        {
            "bufferView" : 31,
            "componentType" : 5126,
            "count" : 720,
            "type" : "VEC2"
        },
        {
            "bufferView" : 32,
            "componentType" : 5126,
            "count" : 720,
            "type" : "VEC2"
        },
        {
            "bufferView" : 33,
            "componentType" : 5126,
            "count" : 720,
            "type" : "VEC2"
        },
        {
            "bufferView" : 34,
            "componentType" : 5126,
            "count" : 720,
            "type" : "VEC2"
        },
        {
            "bufferView" : 35,
            "componentType" : 5126,
            "count" : 720,
            "type" : "VEC2"
        },
        {
            "bufferView" : 36,
            "componentType" : 5126,
            "count" : 720,
            "type" : "VEC2"
        },
        {
            "bufferView" : 37,
            "componentType" : 5126,
            "count" : 720,
            "type" : "VEC2"
        },
        {
            "bufferView" : 38,
            "componentType" : 5126,
            "count" : 720,
            "type" : "VEC2"
        },
        {
            "bufferView" : 39,
            "componentType" : 5123,
            "count" : 1104,
            "type" : "SCALAR"
        },
        {
            "bufferView" : 40,
            "componentType" : 5126,
            "count" : 924,
            "max" : [
                1.3779544830322266,
                7.6771697998046875,
                24.924606323242188
            ],
            "min" : [
                -15.551188468933105,
                -19.914274215698242,
                -13.42520523071289
            ],
            "type" : "VEC3"
        },
        {
            "bufferView" : 41,
            "componentType" : 5126,
            "count" : 924,
            "type" : "VEC3"
        },
        {
            "bufferView" : 42,
            "componentType" : 5126,
            "count" : 924,
            "type" : "VEC2"
        },
        {
            "bufferView" : 43,
            "componentType" : 5126,
            "count" : 924,
            "type" : "VEC2"
        },
        {
            "bufferView" : 44,
            "componentType" : 5126,
            "count" : 924,
            "type" : "VEC2"
        },
        {
            "bufferView" : 45,
            "componentType" : 5126,
            "count" : 924,
            "type" : "VEC2"
        },
        {
            "bufferView" : 46,
            "componentType" : 5126,
            "count" : 924,
            "type" : "VEC2"
        },
        {
            "bufferView" : 47,
            "componentType" : 5126,
            "count" : 924,
            "type" : "VEC2"
        },
        {
            "bufferView" : 48,
            "componentType" : 5126,
            "count" : 924,
            "type" : "VEC2"
        },
        {
            "bufferView" : 49,
            "componentType" : 5126,
            "count" : 924,
            "type" : "VEC2"
        },
        {
            "bufferView" : 50,
            "componentType" : 5126,
            "count" : 924,
            "type" : "VEC2"
        },
        {
            "bufferView" : 51,
            "componentType" : 5126,
            "count" : 924,
            "type" : "VEC2"
        },
        {
            "bufferView" : 52,
            "componentType" : 5126,
            "count" : 924,
            "type" : "VEC2"
        },
        {
            "bufferView" : 53,
            "componentType" : 5126,
            "count" : 924,
            "type" : "VEC2"
        },
        {
            "bufferView" : 54,
            "componentType" : 5126,
            "count" : 924,
            "type" : "VEC2"
        },
        {
            "bufferView" : 55,
            "componentType" : 5126,
            "count" : 924,
            "type" : "VEC2"
        },
        {
            "bufferView" : 56,
            "componentType" : 5126,
            "count" : 924,
            "type" : "VEC2"
        },
        {
            "bufferView" : 57,
            "componentType" : 5126,
            "count" : 924,
            "type" : "VEC2"
        },
        {
            "bufferView" : 58,
            "componentType" : 5126,
            "count" : 924,
            "type" : "VEC2"
        },
        {
            "bufferView" : 59,
            "componentType" : 5123,
            "count" : 1122,
            "type" : "SCALAR"
        }
    ],
    "bufferViews" : [
        {
            "buffer" : 0,
            "byteLength" : 15360,
            "byteOffset" : 0
        },
        {
            "buffer" : 0,
            "byteLength" : 15360,
            "byteOffset" : 15360
        },
        {
            "buffer" : 0,
            "byteLength" : 10240,
            "byteOffset" : 30720
        },
        {
            "buffer" : 0,
            "byteLength" : 10240,
            "byteOffset" : 40960
        },
        {
            "buffer" : 0,
            "byteLength" : 10240,
            "byteOffset" : 51200
        },
        {
            "buffer" : 0,
            "byteLength" : 10240,
            "byteOffset" : 61440
        },
        {
            "buffer" : 0,
            "byteLength" : 10240,
            "byteOffset" : 71680
        },
        {
            "buffer" : 0,
            "byteLength" : 10240,
            "byteOffset" : 81920
        },
        {
            "buffer" : 0,
            "byteLength" : 10240,
            "byteOffset" : 92160
        },
        {
            "buffer" : 0,
            "byteLength" : 10240,
            "byteOffset" : 102400
        },
        {
            "buffer" : 0,
            "byteLength" : 10240,
            "byteOffset" : 112640
        },
        {
            "buffer" : 0,
            "byteLength" : 10240,
            "byteOffset" : 122880
        },
        {
            "buffer" : 0,
            "byteLength" : 10240,
            "byteOffset" : 133120
        },
        {
            "buffer" : 0,
            "byteLength" : 10240,
            "byteOffset" : 143360
        },
        {
            "buffer" : 0,
            "byteLength" : 10240,
            "byteOffset" : 153600
        },
        {
            "buffer" : 0,
            "byteLength" : 10240,
            "byteOffset" : 163840
        },
        {
            "buffer" : 0,
            "byteLength" : 10240,
            "byteOffset" : 174080
        },
        {
            "buffer" : 0,
            "byteLength" : 10240,
            "byteOffset" : 184320
        },
        {
            "buffer" : 0,
            "byteLength" : 10240,
            "byteOffset" : 194560
        },
        {
            "buffer" : 0,
            "byteLength" : 3180,
            "byteOffset" : 204800
        },
        {
            "buffer" : 0,
            "byteLength" : 8640,
            "byteOffset" : 207980
        },
        {
            "buffer" : 0,
            "byteLength" : 8640,
            "byteOffset" : 216620
        },
        {
            "buffer" : 0,
            "byteLength" : 5760,
            "byteOffset" : 225260
        },
        {
            "buffer" : 0,
            "byteLength" : 5760,
            "byteOffset" : 231020
        },
        {
            "buffer" : 0,
            "byteLength" : 5760,
            "byteOffset" : 236780
        },
        {
            "buffer" : 0,
            "byteLength" : 5760,
            "byteOffset" : 242540
        },
        {
            "buffer" : 0,
            "byteLength" : 5760,
            "byteOffset" : 248300
        },
        {
            "buffer" : 0,
            "byteLength" : 5760,
            "byteOffset" : 254060
        },
        {
            "buffer" : 0,
            "byteLength" : 5760,
            "byteOffset" : 259820
        },
        {
            "buffer" : 0,
            "byteLength" : 5760,
            "byteOffset" : 265580
        },
        {
            "buffer" : 0,
            "byteLength" : 5760,
            "byteOffset" : 271340
        },
        {
            "buffer" : 0,
            "byteLength" : 5760,
            "byteOffset" : 277100
        },
        {
            "buffer" : 0,
            "byteLength" : 5760,
            "byteOffset" : 282860
        },
        {
            "buffer" : 0,
            "byteLength" : 5760,
            "byteOffset" : 288620
        },
        {
            "buffer" : 0,
            "byteLength" : 5760,
            "byteOffset" : 294380
        },
        {
            "buffer" : 0,
            "byteLength" : 5760,
            "byteOffset" : 300140
        },
        {
            "buffer" : 0,
            "byteLength" : 5760,
            "byteOffset" : 305900
        },
        {
            "buffer" : 0,
            "byteLength" : 5760,
            "byteOffset" : 311660
        },
        {
            "buffer" : 0,
            "byteLength" : 5760,
            "byteOffset" : 317420
        },
        {
            "buffer" : 0,
            "byteLength" : 2208,
            "byteOffset" : 323180
        },
        {
            "buffer" : 0,
            "byteLength" : 11088,
            "byteOffset" : 325388
        },
        {
            "buffer" : 0,
            "byteLength" : 11088,
            "byteOffset" : 336476
        },
        {
            "buffer" : 0,
            "byteLength" : 7392,
            "byteOffset" : 347564
        },
        {
            "buffer" : 0,
            "byteLength" : 7392,
            "byteOffset" : 354956
        },
        {
            "buffer" : 0,
            "byteLength" : 7392,
            "byteOffset" : 362348
        },
        {
            "buffer" : 0,
            "byteLength" : 7392,
            "byteOffset" : 369740
        },
        {
            "buffer" : 0,
            "byteLength" : 7392,
            "byteOffset" : 377132
        },
        {
            "buffer" : 0,
            "byteLength" : 7392,
            "byteOffset" : 384524
        },
        {
            "buffer" : 0,
            "byteLength" : 7392,
            "byteOffset" : 391916
        },
        {
            "buffer" : 0,
            "byteLength" : 7392,
            "byteOffset" : 399308
        },
        {
            "buffer" : 0,
            "byteLength" : 7392,
            "byteOffset" : 406700
        },
        {
            "buffer" : 0,
            "byteLength" : 7392,
            "byteOffset" : 414092
        },
        {
            "buffer" : 0,
            "byteLength" : 7392,
            "byteOffset" : 421484
        },
        {
            "buffer" : 0,
            "byteLength" : 7392,
            "byteOffset" : 428876
        },
        {
            "buffer" : 0,
            "byteLength" : 7392,
            "byteOffset" : 436268
        },
        {
            "buffer" : 0,
            "byteLength" : 7392,
            "byteOffset" : 443660
        },
        {
            "buffer" : 0,
            "byteLength" : 7392,
            "byteOffset" : 451052
        },
        {
            "buffer" : 0,
            "byteLength" : 7392,
            "byteOffset" : 458444
        },
        {
            "buffer" : 0,
            "byteLength" : 7392,
            "byteOffset" : 465836
        },
        {
            "buffer" : 0,
            "byteLength" : 2244,
            "byteOffset" : 473228
        }
    ],
    "buffers" : [
        {
            "byteLength" : 475472,
            "uri" : "data:application/octet-stream;base64,"
        }
    ]
}
